<svg xmlns="http://www.w3.org/2000/svg" xmlns:xlink="http://www.w3.org/1999/xlink" width="132.361" height="37.789" viewBox="0 0 132.361 37.789">
  <defs>
    <linearGradient id="linear-gradient" x1="-1.199" y1="2.436" x2="-1.199" y2="1.535" gradientUnits="objectBoundingBox">
      <stop offset="0" stop-color="#1a1a1a" stop-opacity="0.102"/>
      <stop offset="0.123" stop-color="#212121" stop-opacity="0.153"/>
      <stop offset="0.308" stop-color="#353535" stop-opacity="0.227"/>
      <stop offset="0.532" stop-color="#575757" stop-opacity="0.318"/>
      <stop offset="0.783" stop-color="#858585" stop-opacity="0.42"/>
      <stop offset="1" stop-color="#b3b3b3" stop-opacity="0.51"/>
    </linearGradient>
  </defs>
  <g id="Group_875" data-name="Group 875" transform="translate(-1170 -9401.044)">
    <path id="Path_220" data-name="Path 220" d="M127.722,37.789H4.639A4.558,4.558,0,0,1,0,33.329V4.466A4.56,4.56,0,0,1,4.639,0H127.721a4.562,4.562,0,0,1,4.639,4.466V33.328a4.557,4.557,0,0,1-4.638,4.461Z" transform="translate(1170 9401.044)" fill="#a6a6a6"/>
    <path id="Path_221" data-name="Path 221" d="M134.236,36.048a3.552,3.552,0,0,1-1.1,2.561,3.834,3.834,0,0,1-2.661,1.059H7.33a3.7,3.7,0,0,1-3.768-3.619V7.185A3.7,3.7,0,0,1,7.33,3.561H130.472a3.7,3.7,0,0,1,3.763,3.624V36.048Z" transform="translate(1167.281 9398.324)"/>
    <path id="Path_222" data-name="Path 222" d="M67.582,37.7a5.478,5.478,0,0,1,2.61-4.6,5.613,5.613,0,0,0-4.42-2.389c-1.859-.2-3.663,1.112-4.61,1.112-.966,0-2.425-1.093-4-1.061a5.885,5.885,0,0,0-4.953,3.02c-2.142,3.707-.544,9.155,1.508,12.152,1.027,1.469,2.226,3.106,3.8,3.049,1.536-.062,2.11-.978,3.963-.978,1.837,0,2.375.978,3.977.941,1.648-.026,2.686-1.474,3.677-2.955a12.112,12.112,0,0,0,1.682-3.424,5.3,5.3,0,0,1-3.233-4.87Zm-3.025-8.957a5.391,5.391,0,0,0,1.234-3.864,5.494,5.494,0,0,0-3.552,1.837,5.13,5.13,0,0,0-1.267,3.721A4.538,4.538,0,0,0,64.557,28.739Z" transform="translate(1130.896 9382.044)" fill="#fff"/>
    <path id="Path_223" data-name="Path 223" d="M315.633,0H252.108L276.99,37.789h38.643a4.473,4.473,0,0,0,4.47-4.464V4.466A4.474,4.474,0,0,0,315.633,0Z" transform="translate(982.258 9401.044)" fill="url(#linear-gradient)"/>
    <g id="Group_166" data-name="Group 166" transform="translate(1214.93 9418.053)">
      <path id="Path_224" data-name="Path 224" d="M180.431,84.778h-2.147l-1.176-3.694h-4.087l-1.12,3.694h-2.09l4.05-12.576h2.5Zm-3.677-5.244-1.063-3.284q-.169-.5-.634-2.369h-.038q-.187.8-.6,2.369l-1.045,3.284Zm14.073.6a5.134,5.134,0,0,1-1.257,3.656,3.686,3.686,0,0,1-2.8,1.194,2.8,2.8,0,0,1-2.59-1.286v4.758h-2.015V78.69q0-1.453-.075-2.98h1.772l.112,1.437h.038a3.586,3.586,0,0,1,5.739-.356A5.013,5.013,0,0,1,190.827,80.132Zm-2.053.074a3.738,3.738,0,0,0-.6-2.184,2.065,2.065,0,0,0-1.754-.895,2.1,2.1,0,0,0-1.353.494,2.292,2.292,0,0,0-.793,1.3,2.63,2.63,0,0,0-.094.613v1.513a2.426,2.426,0,0,0,.607,1.671,2.015,2.015,0,0,0,1.577.681,2.066,2.066,0,0,0,1.772-.877A3.859,3.859,0,0,0,188.774,80.206Zm12.486-.074A5.134,5.134,0,0,1,200,83.788a3.688,3.688,0,0,1-2.8,1.194,2.8,2.8,0,0,1-2.59-1.286v4.758H192.6V78.69q0-1.453-.075-2.98H194.3l.112,1.437h.038a3.587,3.587,0,0,1,5.739-.356A5.019,5.019,0,0,1,201.26,80.132Zm-2.054.074a3.738,3.738,0,0,0-.6-2.184,2.062,2.062,0,0,0-1.752-.895,2.1,2.1,0,0,0-1.355.494,2.291,2.291,0,0,0-.792,1.3,2.691,2.691,0,0,0-.095.613v1.513a2.434,2.434,0,0,0,.606,1.671,2.019,2.019,0,0,0,1.579.681,2.063,2.063,0,0,0,1.772-.877A3.859,3.859,0,0,0,199.206,80.206Zm13.718,1.044a3.359,3.359,0,0,1-1.118,2.613,4.957,4.957,0,0,1-3.426,1.1,5.982,5.982,0,0,1-3.257-.783l.466-1.679a5.608,5.608,0,0,0,2.911.784,2.747,2.747,0,0,0,1.772-.513,1.676,1.676,0,0,0,.636-1.37,1.756,1.756,0,0,0-.524-1.288,4.855,4.855,0,0,0-1.735-.97q-3.3-1.232-3.3-3.6a3.18,3.18,0,0,1,1.166-2.537,4.613,4.613,0,0,1,3.089-.989,6.106,6.106,0,0,1,2.856.6l-.506,1.642a4.994,4.994,0,0,0-2.417-.578,2.458,2.458,0,0,0-1.667.523,1.5,1.5,0,0,0-.506,1.14,1.54,1.54,0,0,0,.579,1.231,6.528,6.528,0,0,0,1.828.97,6.2,6.2,0,0,1,2.389,1.529,3.186,3.186,0,0,1,.768,2.181Zm6.68-4.028h-2.221v4.4q0,1.68,1.176,1.678a3.541,3.541,0,0,0,.9-.094l.056,1.53a4.567,4.567,0,0,1-1.567.223,2.416,2.416,0,0,1-1.867-.729,3.572,3.572,0,0,1-.672-2.445V77.218H214.08V75.706H215.4v-1.66l1.979-.6v2.258H219.6v1.516Zm10,2.947a4.974,4.974,0,0,1-1.195,3.433,4.259,4.259,0,0,1-3.322,1.381,4.06,4.06,0,0,1-3.183-1.323,4.823,4.823,0,0,1-1.185-3.34,4.933,4.933,0,0,1,1.222-3.451,4.237,4.237,0,0,1,3.3-1.344,4.145,4.145,0,0,1,3.209,1.325A4.76,4.76,0,0,1,229.606,80.169Zm-2.089.046a4.06,4.06,0,0,0-.54-2.139A2,2,0,0,0,225.167,77a2.024,2.024,0,0,0-1.848,1.08,4.127,4.127,0,0,0-.541,2.177,4.048,4.048,0,0,0,.541,2.14,2.067,2.067,0,0,0,3.642-.018,4.076,4.076,0,0,0,.557-2.16Zm8.642-2.734a3.508,3.508,0,0,0-.635-.056,1.9,1.9,0,0,0-1.643.8,3.025,3.025,0,0,0-.5,1.791v4.758h-2.015V78.565q0-1.428-.059-2.855h1.755l.074,1.735h.056a3.111,3.111,0,0,1,1.008-1.437,2.437,2.437,0,0,1,1.457-.486,3.236,3.236,0,0,1,.5.037Zm9.013,2.333a4.723,4.723,0,0,1-.074.914h-6.046a2.629,2.629,0,0,0,.877,2.054,3,3,0,0,0,1.977.633,6.689,6.689,0,0,0,2.446-.428l.316,1.4a7.565,7.565,0,0,1-3.041.56,4.409,4.409,0,0,1-3.314-1.24,4.583,4.583,0,0,1-1.2-3.33,5.193,5.193,0,0,1,1.121-3.413,3.863,3.863,0,0,1,3.171-1.454,3.38,3.38,0,0,1,2.969,1.454,4.893,4.893,0,0,1,.8,2.852Zm-1.922-.523a2.727,2.727,0,0,0-.391-1.549,1.76,1.76,0,0,0-1.605-.841,1.911,1.911,0,0,0-1.6.821,3.009,3.009,0,0,0-.6,1.567l4.2,0Z" transform="translate(-169.812 -72.016)" fill="#fff"/>
    </g>
    <g id="Group_167" data-name="Group 167" transform="translate(1216.109 9407.236)">
      <path id="Path_225" data-name="Path 225" d="M176.255,32.776a12.871,12.871,0,0,1-1.449-.074v-6.08a10.973,10.973,0,0,1,1.706-.129c2.311,0,3.375,1.137,3.375,2.99C179.888,31.621,178.631,32.776,176.255,32.776Zm.338-5.5a4.044,4.044,0,0,0-.8.064v4.622a5.231,5.231,0,0,0,.669.027,2.19,2.19,0,0,0,2.376-2.476A2.017,2.017,0,0,0,176.594,27.273Zm6.611,5.549a2.121,2.121,0,0,1-2.147-2.293,2.171,2.171,0,0,1,2.22-2.357,2.1,2.1,0,0,1,2.147,2.284A2.184,2.184,0,0,1,183.2,32.822Zm.038-3.925c-.716,0-1.174.669-1.174,1.6,0,.918.468,1.587,1.165,1.587s1.165-.715,1.165-1.606C184.4,29.575,183.939,28.9,183.243,28.9Zm9.61-.632-1.394,4.457h-.908l-.578-1.935a14.673,14.673,0,0,1-.358-1.439H189.6a9.647,9.647,0,0,1-.357,1.439l-.614,1.935h-.918l-1.312-4.457h1.018l.5,2.119q.179.757.3,1.431h.019c.073-.375.192-.844.367-1.421l.633-2.127h.807l.606,2.082c.146.5.266,1,.358,1.468h.026a12.826,12.826,0,0,1,.3-1.468l.542-2.082h.973Zm5.133,4.457h-.991V30.162c0-.788-.3-1.183-.9-1.183a1.029,1.029,0,0,0-.991,1.091v2.651h-.991V29.538c0-.394-.009-.816-.037-1.275h.872l.046.688h.027a1.6,1.6,0,0,1,1.413-.779c.936,0,1.55.715,1.55,1.88v2.669Zm2.732,0h-.992v-6.5h.992Zm3.612.1a2.122,2.122,0,0,1-2.147-2.293,2.171,2.171,0,0,1,2.219-2.357,2.1,2.1,0,0,1,2.147,2.284A2.183,2.183,0,0,1,204.329,32.822Zm.037-3.925c-.716,0-1.174.669-1.174,1.6,0,.918.469,1.587,1.164,1.587s1.165-.715,1.165-1.606c0-.907-.457-1.586-1.154-1.586Zm6.088,3.824-.072-.513h-.026a1.522,1.522,0,0,1-1.3.614,1.3,1.3,0,0,1-1.366-1.312c0-1.1.954-1.669,2.605-1.669v-.082c0-.587-.311-.881-.925-.881a2.086,2.086,0,0,0-1.165.331l-.2-.651a2.85,2.85,0,0,1,1.53-.386c1.165,0,1.752.614,1.752,1.844v1.641a6.731,6.731,0,0,0,.064,1.064h-.893Zm-.136-2.22c-1.1,0-1.652.266-1.652.9a.632.632,0,0,0,.68.7.949.949,0,0,0,.973-.907Zm5.775,2.22-.046-.715h-.027a1.494,1.494,0,0,1-1.431.816,2.031,2.031,0,0,1-1.871-2.275,2.115,2.115,0,0,1,1.952-2.376,1.339,1.339,0,0,1,1.257.606h.02V26.219h.992v5.3c0,.431.01.834.037,1.2Zm-.147-2.622a1.078,1.078,0,0,0-1.044-1.156c-.734,0-1.183.651-1.183,1.568,0,.9.466,1.514,1.164,1.514a1.112,1.112,0,0,0,1.063-1.183V30.1Zm7.278,2.723a2.121,2.121,0,0,1-2.146-2.293,2.171,2.171,0,0,1,2.219-2.357,2.1,2.1,0,0,1,2.147,2.284,2.183,2.183,0,0,1-2.22,2.365Zm.037-3.925c-.715,0-1.173.669-1.173,1.6,0,.918.468,1.587,1.164,1.587s1.165-.715,1.165-1.606C224.419,29.575,223.961,28.9,223.262,28.9Zm7.511,3.824h-.992V30.162c0-.788-.3-1.183-.9-1.183a1.028,1.028,0,0,0-.99,1.091v2.651H226.9V29.538c0-.394-.009-.816-.037-1.275h.872l.046.688h.027a1.6,1.6,0,0,1,1.412-.78c.936,0,1.551.715,1.551,1.88Zm6.665-3.714h-1.09v2.164c0,.551.191.826.577.826a1.952,1.952,0,0,0,.44-.046l.027.752a2.195,2.195,0,0,1-.768.111c-.781,0-1.248-.431-1.248-1.559V29.007h-.65v-.743h.65v-.816l.973-.294v1.109h1.09Zm5.244,3.714h-.99v-2.54c0-.8-.3-1.2-.9-1.2a.971.971,0,0,0-.992,1.055v2.687h-.99v-6.5h.99V28.9h.02a1.5,1.5,0,0,1,1.34-.725c.943,0,1.52.733,1.52,1.9v2.651Zm5.373-1.99h-2.973a1.279,1.279,0,0,0,1.4,1.32,3.349,3.349,0,0,0,1.2-.211l.154.688a3.722,3.722,0,0,1-1.5.275,2.069,2.069,0,0,1-2.219-2.246,2.177,2.177,0,0,1,2.108-2.394,1.872,1.872,0,0,1,1.854,2.119,1.908,1.908,0,0,1-.034.449Zm-.908-.706c0-.688-.347-1.174-.98-1.174a1.175,1.175,0,0,0-1.083,1.174Z" transform="translate(-174.806 -26.219)" fill="#fff"/>
    </g>
  </g>
</svg>
