<svg width="121" height="35" viewBox="0 0 121 35" fill="none" xmlns="http://www.w3.org/2000/svg">
<g id="GooglePlay" clip-path="url(#clip0_27_1686)">
<g id="Google Play">
<g id="Group">
<path id="Vector" d="M116.892 0H4.88801C2.6195 0 0.780518 1.83899 0.780518 4.10749V30.6448C0.780518 32.9133 2.6195 34.7523 4.88801 34.7523H116.892C119.161 34.7523 121 32.9133 121 30.6448V4.10749C121 1.83899 119.161 0 116.892 0Z" fill="black"/>
<g id="Group_2">
<path id="Vector_2" d="M61.4299 19.0459C59.3261 19.0459 57.6063 20.6488 57.6063 22.8528C57.6063 25.0568 59.3205 26.6597 61.4299 26.6597C63.5393 26.6597 65.2535 25.0457 65.2535 22.8528C65.2535 20.6599 63.5393 19.0459 61.4299 19.0459ZM61.4299 25.1626C60.2778 25.1626 59.2815 24.2108 59.2815 22.8528C59.2815 21.4948 60.2778 20.543 61.4299 20.543C62.582 20.543 63.5783 21.4781 63.5783 22.8528C63.5783 24.2275 62.582 25.1626 61.4299 25.1626ZM53.0925 19.0459C50.9886 19.0459 49.2688 20.6488 49.2688 22.8528C49.2688 25.0568 50.9831 26.6597 53.0925 26.6597C55.2019 26.6597 56.9161 25.0457 56.9161 22.8528C56.9161 20.6599 55.2019 19.0459 53.0925 19.0459ZM53.0925 25.1626C51.9404 25.1626 50.9441 24.2108 50.9441 22.8528C50.9441 21.4948 51.9404 20.543 53.0925 20.543C54.2446 20.543 55.2408 21.4781 55.2408 22.8528C55.2408 24.2275 54.2446 25.1626 53.0925 25.1626ZM43.1744 20.2146V21.8287H47.037C46.9201 22.7359 46.6196 23.3982 46.1576 23.8602C45.5955 24.4223 44.7161 25.0401 43.1744 25.0401C40.7923 25.0401 38.9333 23.1199 38.9333 20.7434C38.9333 18.3668 40.7923 16.4467 43.1744 16.4467C44.4601 16.4467 45.3951 16.9531 46.0853 17.5988L47.2262 16.4578C46.2578 15.5339 44.9777 14.827 43.1744 14.827C39.9129 14.827 37.1746 17.4819 37.1746 20.7378C37.1746 23.9938 39.9129 26.6486 43.1744 26.6486C44.9332 26.6486 46.2634 26.0698 47.2986 24.99C48.3672 23.9214 48.6956 22.4242 48.6956 21.2109C48.6956 20.838 48.6677 20.4874 48.6065 20.2035H43.1688L43.1744 20.2146ZM83.7317 21.4669C83.4144 20.6154 82.446 19.0459 80.4702 19.0459C78.4944 19.0459 76.8803 20.5876 76.8803 22.8528C76.8803 24.9845 78.4944 26.6597 80.6594 26.6597C82.4071 26.6597 83.4144 25.5911 83.8319 24.9733L82.5351 24.1106C82.1009 24.7451 81.511 25.1626 80.6594 25.1626C79.8079 25.1626 79.2012 24.773 78.8116 24.0105L83.9042 21.9066L83.7317 21.4725V21.4669ZM78.5389 22.7359C78.4944 21.2666 79.6799 20.5152 80.5314 20.5152C81.1937 20.5152 81.7559 20.8491 81.9451 21.3222L78.5445 22.7359H78.5389ZM74.4036 26.4315H76.0788V15.2389H74.4036V26.4315ZM71.6597 19.8974H71.604C71.2311 19.4521 70.5076 19.0459 69.6004 19.0459C67.6969 19.0459 65.9493 20.7211 65.9493 22.8695C65.9493 25.0179 67.6969 26.6597 69.6004 26.6597C70.5076 26.6597 71.2311 26.2534 71.604 25.7971H71.6597V26.3425C71.6597 27.8007 70.8805 28.5799 69.6282 28.5799C68.6041 28.5799 67.9696 27.8452 67.708 27.2219L66.2498 27.8285C66.6672 28.8359 67.7804 30.0771 69.6226 30.0771C71.5818 30.0771 73.2403 28.925 73.2403 26.1087V19.274H71.6541V19.8918L71.6597 19.8974ZM69.7451 25.1626C68.593 25.1626 67.6245 24.1941 67.6245 22.8695C67.6245 21.5449 68.593 20.5486 69.7451 20.5486C70.8972 20.5486 71.7766 21.5282 71.7766 22.8695C71.7766 24.2108 70.8805 25.1626 69.7451 25.1626ZM91.5682 15.2389H87.5665V26.4315H89.2362V22.1905H91.5682C93.4216 22.1905 95.2416 20.8491 95.2416 18.7175C95.2416 16.5858 93.4216 15.2445 91.5682 15.2445V15.2389ZM91.6127 20.6321H89.2362V16.7973H91.6127C92.8594 16.7973 93.5719 17.8325 93.5719 18.7175C93.5719 19.6024 92.865 20.6376 91.6127 20.6376V20.6321ZM101.937 19.0236C100.729 19.0236 99.4771 19.5579 98.9595 20.7378L100.44 21.3556C100.757 20.7378 101.347 20.5375 101.965 20.5375C102.828 20.5375 103.707 21.0551 103.724 21.979V22.0959C103.423 21.9233 102.772 21.6617 101.982 21.6617C100.384 21.6617 98.7591 22.5411 98.7591 24.183C98.7591 25.6802 100.067 26.643 101.536 26.643C102.661 26.643 103.278 26.1366 103.668 25.5466H103.724V26.4093H105.338V22.1181C105.338 20.1312 103.857 19.0236 101.943 19.0236H101.937ZM101.737 25.157C101.191 25.157 100.429 24.8843 100.429 24.2053C100.429 23.3426 101.381 23.0086 102.199 23.0086C102.933 23.0086 103.278 23.1645 103.724 23.3815C103.596 24.4168 102.7 25.1514 101.737 25.1514V25.157ZM111.21 19.2685L109.295 24.1218H109.239L107.252 19.2685H105.455L108.432 26.0475L106.735 29.8211H108.477L113.069 19.2685H111.21ZM96.1599 26.4315H97.8296V15.2389H96.1599V26.4315Z" fill="white"/>
<g id="Group_3">
<path id="Vector_3" d="M9.77441 6.33384C9.51282 6.60656 9.36255 7.03512 9.36255 7.59169V27.3722C9.36255 27.9288 9.51839 28.3518 9.77441 28.6301L9.8412 28.6968L20.9225 17.6155V17.3539L9.8412 6.26705L9.77441 6.33384Z" fill="#5BC9F4"/>
<path id="Vector_4" d="M24.6185 21.3058L20.9229 17.6101V17.3485L24.6185 13.6529L24.702 13.703L29.0766 16.1909C30.3289 16.9033 30.3289 18.061 29.0766 18.7734L24.702 21.2612L24.6185 21.3113V21.3058Z" fill="url(#paint0_linear_27_1686)"/>
<path id="Vector_5" d="M24.7016 21.2554L20.9225 17.4763L9.77441 28.6244C10.1863 29.0585 10.8653 29.1142 11.6334 28.6801L24.7016 21.2554Z" fill="url(#paint1_linear_27_1686)"/>
<path id="Vector_6" d="M24.7016 13.7027L11.6334 6.27808C10.8653 5.84396 10.1863 5.89405 9.77441 6.33374L20.9225 17.4819L24.7016 13.7027Z" fill="url(#paint2_linear_27_1686)"/>
</g>
</g>
<g id="Group_4">
<path id="Vector_7" d="M41.477 6.96276C41.1431 6.66221 40.6978 6.47298 40.208 6.47298C39.106 6.47298 38.26 7.38019 38.26 8.4989C38.26 9.6176 39.106 10.5137 40.208 10.5137C41.1542 10.5137 41.8443 9.96268 41.8889 9.09443H40.3917V8.47663H42.7015C42.7015 10.3244 41.7163 11.1983 40.208 11.1983C38.6997 11.1983 37.5476 9.99051 37.5476 8.4989C37.5476 7.00729 38.7108 5.79396 40.208 5.79396C40.9037 5.79396 41.5327 6.06112 41.989 6.48968L41.477 6.96276Z" fill="white"/>
<path id="Vector_8" d="M46.7867 5.85505V6.51737H44.3767V8.19821H46.4806V8.8661H44.3767V10.4579H46.859V11.1202H43.6643V5.85505H46.7811H46.7867Z" fill="white"/>
<path id="Vector_9" d="M51.4005 5.85505V6.5285H49.8031V11.1202H49.0852V6.5285H47.4878V5.85505H51.4005Z" fill="white"/>
<path id="Vector_10" d="M54.8066 5.85505V11.1202H54.0942V5.85505H54.8066Z" fill="white"/>
<path id="Vector_11" d="M59.6544 5.85505V6.5285H58.057V11.1202H57.3391V6.5285H55.7417V5.85505H59.6544Z" fill="white"/>
<path id="Vector_12" d="M64.6692 5.79398C66.1775 5.79398 67.3463 7.00174 67.3463 8.49892C67.3463 9.99609 66.1775 11.1983 64.6692 11.1983C63.1609 11.1983 62.0088 9.99053 62.0088 8.49892C62.0088 7.00731 63.172 5.79398 64.6692 5.79398ZM64.6692 10.5081C65.7768 10.5081 66.6283 9.61206 66.6283 8.49892C66.6283 7.38578 65.7823 6.47857 64.6692 6.47857C63.5561 6.47857 62.7212 7.38021 62.7212 8.49892C62.7212 9.61762 63.5672 10.5081 64.6692 10.5081Z" fill="white"/>
<path id="Vector_13" d="M71.5485 11.1202L69.1497 7.15186V11.1202H68.4373V5.85505H69.1385L71.5151 9.79001V5.85505H72.2275V11.1202H71.5485Z" fill="white"/>
</g>
</g>
</g>
</g>
<defs>
<linearGradient id="paint0_linear_27_1686" x1="28.264" y1="17.4766" x2="6.62455" y2="17.4766" gradientUnits="userSpaceOnUse">
<stop stop-color="#FEE000"/>
<stop offset="0.42" stop-color="#FBBC0E"/>
<stop offset="0.78" stop-color="#F9A318"/>
<stop offset="1" stop-color="#F99B1C"/>
</linearGradient>
<linearGradient id="paint1_linear_27_1686" x1="22.6479" y1="19.53" x2="2.29411" y2="39.8894" gradientUnits="userSpaceOnUse">
<stop stop-color="#EF4547"/>
<stop offset="1" stop-color="#C6186D"/>
</linearGradient>
<linearGradient id="paint2_linear_27_1686" x1="2.19949" y1="-5.0203" x2="18.8243" y2="11.5989" gradientUnits="userSpaceOnUse">
<stop stop-color="#279E6F"/>
<stop offset="0.04" stop-color="#2B9F6E"/>
<stop offset="0.46" stop-color="#52B16B"/>
<stop offset="0.8" stop-color="#6BBC69"/>
<stop offset="1" stop-color="#74C169"/>
</linearGradient>
<clipPath id="clip0_27_1686">
<rect width="120.219" height="34.7523" fill="white" transform="translate(0.780762)"/>
</clipPath>
</defs>
</svg>
